<svg version="1.2" baseProfile="tiny-ps" xmlns="http://www.w3.org/2000/svg" viewBox="0 0 32 32" width="32" height="32">
	<title>logo-svg</title>
	<style>
		tspan { white-space:pre }
		.shp0 { fill: #49aa26 } 
	</style>
	<path id="Layer" fill-rule="evenodd" class="shp0" d="M25.14 20.95C25.14 22.03 24.83 23.04 24.2 23.99C23.6 24.94 22.7 25.73 21.5 26.38C20.33 27.03 18.93 27.41 17.31 27.54L17.31 30.16L14.87 30.16L14.87 27.54C12.52 27.35 10.62 26.71 9.17 25.64C7.72 24.56 7 23.14 7 21.37L11.57 21.37C11.65 22.21 11.96 22.91 12.51 23.47C13.06 24.01 13.84 24.35 14.87 24.5L14.87 17.39C13.2 17.02 11.83 16.66 10.79 16.29C9.73 15.9 8.84 15.3 8.09 14.48C7.36 13.66 7 12.54 7 11.12C7 9.33 7.72 7.85 9.17 6.69C10.62 5.5 12.52 4.81 14.87 4.62L14.87 2L17.31 2L17.31 4.62C19.5 4.79 21.27 5.4 22.59 6.43C23.94 7.44 24.7 8.84 24.88 10.63L20.3 10.63C20.23 9.97 19.93 9.37 19.4 8.85C18.88 8.32 18.18 7.95 17.31 7.76L17.31 14.74C18.98 15.08 20.34 15.45 21.39 15.84C22.44 16.21 23.33 16.8 24.05 17.62C24.78 18.41 25.14 19.53 25.14 20.95ZM11.35 10.92C11.35 11.81 11.65 12.5 12.25 12.99C12.87 13.49 13.75 13.89 14.87 14.19L14.87 7.66C13.8 7.77 12.93 8.1 12.28 8.66C11.66 9.22 11.35 9.98 11.35 10.92ZM17.31 24.5C18.4 24.35 19.27 23.98 19.89 23.37C20.52 22.75 20.83 22 20.83 21.14C20.83 20.28 20.52 19.61 19.89 19.14C19.29 18.64 18.43 18.24 17.31 17.94L17.31 24.5Z" />
</svg>